<svg id="Layer_1" data-name="Layer 1" xmlns="http://www.w3.org/2000/svg" viewBox="0 0 715.46 160.26"><defs><style>.cls-1{fill:#fdfdfd;}.cls-2{fill:#252122;}.cls-3{fill:#262223;}.cls-4{fill:#a6a6a5;}.cls-5{fill:#262324;}.cls-6{fill:#272324;}.cls-7{fill:#e42c34;}</style></defs><title>opengear-logo</title><path class="cls-1" d="M149.64,68.42l0.28,0.19,0-.34Z"/><path class="cls-2" d="M68.68,0.12C60.15,5.38,51.94,10.28,43.94,15.51c-1.84,1.2-3,3.5-4.27,5.14C50,44.61,101,109,121.51,124c13.45-4.5,18.67-17.57,27.4-27.58,0.3,1,.67,1.62.51,1.91-8.33,15.14-16.32,30.51-25.3,45.26-3.16,5.19-8.29,9.63-13.41,13.09-7.42,5-15.84,5.09-22.54-1.35A294.52,294.52,0,0,1,64.07,129.4C48.05,109.8,32.45,89.86,17,69.82A164.92,164.92,0,0,1,3.32,49C-2.33,38.79-.81,29.61,8.24,22.22a62.41,62.41,0,0,1,18-10.3C38.92,7.37,52,4,64.9.16A14.16,14.16,0,0,1,68.68.12Z"/><path class="cls-3" d="M476.76,129.9V109.18c4.7,0.77,9.22,1.64,13.77,2.22,12.75,1.62,19.9-4.13,20.38-16.9,0.33-8.8.11-17.65-.32-26.45-0.25-5-1.46-10-6.34-12.91-4.06-2.39-9.94-1.75-13.65,1.24a13.82,13.82,0,0,0-4.88,14.76c1.35,4.69,6,8.73,10.94,8.84,3.43,0.08,6.88-.54,10.56-0.86,0,6.18,0,12.63,0,19.07-11.7,6-33.36,0-40-19.36C458.56,53.72,479.41,29.78,505.4,35c12.44,2.49,19.34,11,23.06,22.49a29.4,29.4,0,0,1,1.66,8.8c0,12,.55,24-0.67,35.89-1.63,15.91-13.32,26.48-29.29,27.65C492.58,130.36,484.94,129.9,476.76,129.9Z"/><path class="cls-3" d="M274.58,129.49H255.52c-0.1-1.52-.28-3-0.29-4.39,0-17.83-.18-35.66.09-53.48a50.56,50.56,0,0,1,2.36-14.7c5.36-16.45,20.47-25.14,37.68-22.19A34.82,34.82,0,0,1,324.43,69.6c-0.1,24.69-22.08,40.72-45.93,33.17V83.4c4.08,0.62,8,1.72,11.88,1.7,8.62,0,15.33-8.17,14.46-16.92-0.92-9.17-8.39-15.41-17.09-14.33-6.19.77-10.15,4.29-11.51,10.19a63,63,0,0,0-1.59,13.34c-0.19,15.49-.07,31-0.07,46.48C274.58,125.64,274.58,127.43,274.58,129.49Z"/><path class="cls-4" d="M96.8,6.43c-6.17,3.34-13.42,5.19-17.17,11.79,4.72,13.56,38.7,56.61,52.74,66.77,8.11-2,11.06-9.77,16.19-15.23a3.11,3.11,0,0,1,.62,1c-5.71,10.1-10.87,20.58-17.36,30.15-5.69,8.38-15.14,12.38-24.7,1.87C99.19,94,92,84.64,84.6,75.45,77,66,69.4,56.51,62,46.89a72.07,72.07,0,0,1-6.64-10.54C52,29.88,53.5,23.67,59.08,19c6.72-5.66,15-7.74,23.11-10.15,4.67-1.39,9.45-2.42,14.18-3.61Z"/><path class="cls-3" d="M675,103.24H655.51c0-4.12,0-8.19,0-12.26-0.06-6.64,0-13.28-.34-19.9a25.22,25.22,0,0,0-2-7.7c-3-7.61-9.2-10.95-16.64-9.2A15.57,15.57,0,0,0,625,70.68c0.79,8.12,6.52,14.36,13.92,14.42,4.06,0,8.13-1,12.44-1.55,0,6,0,12.48,0,18.92-19.89,8.77-44.33-6.84-45.93-29.33C603.59,48,623.31,30.4,648,35c13.18,2.45,23.75,13.14,25.4,28C674.87,76.14,674.53,89.51,675,103.24Z"/><path class="cls-5" d="M248.64,69.65c0,19.53-15.33,35.19-34.53,35.27-19.4.08-34.8-15.63-34.83-35.52a35,35,0,0,1,35.15-35.28C233.31,34.06,248.63,50,248.64,69.65ZM214.06,85.22c8.43,0,15.19-7.15,15.08-15.94-0.1-8.42-7-15.53-15.12-15.62s-15.11,7.44-15,16.18S205.64,85.24,214.06,85.22Z"/><path class="cls-5" d="M602.19,51.93l-31,32.8c8.23,2,14.9-2.34,22.38-5.9l5.27,19.76c-14.47,6.68-28.91,9.65-43.51,1.4-13.15-7.43-19.2-19.16-17.76-34.21,1.38-14.43,9.25-24.58,22.78-29.51s25.92-1.62,36.13,8.73C598.66,47.25,600.49,49.86,602.19,51.93ZM558.46,75.5l18.82-20a12.64,12.64,0,0,0-14.91,1.63C557.33,61.39,555.8,67.46,558.46,75.5Z"/><path class="cls-6" d="M393.73,52L363,84.81c7.9,2,14.69-2.39,22.15-6L390.28,98c-27.35,16.17-55,2.31-60.23-19.71-4-16.73,3.46-33.23,18.55-40.69,14.61-7.22,31.52-2.95,42.36,10.73C392,49.59,393,50.94,393.73,52ZM349.79,75.12l19.34-19.93c-5.82-2.76-11.09-1.68-15.58,2.51C348.62,62.28,347.32,68,349.79,75.12Z"/><path class="cls-3" d="M418.72,103.17H399.83c0-14.33-1.08-28.51.28-42.46,1.65-17,14.37-27.32,30-26.58,16,0.76,27.33,12.1,28.22,29.23,0.6,11.62.23,23.29,0.29,34.94,0,1.49,0,3,0,4.79H439c0-2.75,0-5.51,0-8.28,0-9.65.36-19.33-.2-29-0.2-3.49-1.73-7.77-4.17-10.1-5.31-5.06-14.21-1.12-15.34,6.61-0.72,4.9-.5,10-0.54,14.94C418.67,85.77,418.72,94.23,418.72,103.17Z"/><path class="cls-3" d="M703.25,103.17H684.39c0-14.82-.71-29.45.21-44,0.84-13.27,9.91-22.39,21.87-24.42a15.07,15.07,0,0,1,3-.35c5.74,0.18,6,.5,6,6.31,0,4.15,0,8.3,0,11.9-3.4,1.73-7.63,2.5-9,4.91-2.1,3.64-2.89,8.4-3.05,12.73C703,81.07,703.25,91.88,703.25,103.17Z"/><path class="cls-7" d="M115.9,9.45c-2.3,1.55-4.65,3-6.87,4.69a12.21,12.21,0,0,0-1.93,2.56A184.4,184.4,0,0,0,140.91,59l9.1-8.87c-3.47,7.72-6,16-13.16,21.47-3.24,2.46-6.86,2.67-10.11-.1a47.82,47.82,0,0,1-6.38-6.3c-8.15-10.12-16.16-20.34-24.21-30.55a38.9,38.9,0,0,1-2.29-3.28C88.53,23,90,17.65,99.23,13.65c5.26-2.27,10.88-3.71,16.34-5.52Z"/><polygon class="cls-4" points="149.64 68.42 149.94 68.27 149.92 68.61 149.64 68.42"/></svg>